PathFileType	4	(X/Y/Z)	Kaydara																																																																																																																									
DataRate	CameraRate	NumFrames	NumMarkers	Units	OrigDataRate	OrigDataStartFrame	OrigNumFrames																																																																																																																					
30	30	9	41	mm	30	1	198																																																																																																																					
Frame#	Time	NABA_LFHD			NABA_RFHD			NABA_LBHD			NABA_RBHD			NABA_LFTShould			NABA_RFTShould			NABA_LRRShould			NABA_RRRShould			NABA_T10			NABA_STRN			NABA_TRUN			NABA_LSHO			NABA_LUPA			NABA_LELB			NABA_LFRM			NABA_LWRA			NABA_LWRB			NABA_LFIN			NABA_RSHO			NABA_RUPA			NABA_RELB			NABA_RFRM			NABA_RWRA			NABA_RWRB			NABA_RFIN			NABA_LFWT			NABA_RFWT			NABA_LBWT			NABA_RBWT			NABA_LTHI			NABA_LKNE			NABA_LSHN			NABA_LANK			NABA_LHEE			NABA_LTOE			NABA_RTHI			NABA_RKNE			NABA_RSHN			NABA_RANK			NABA_RHEE			NABA_RTOE		
		X1	Y1	Z1	X2	Y2	Z2	X3	Y3	Z3	X4	Y4	Z4	X5	Y5	Z5	X6	Y6	Z6	X7	Y7	Z7	X8	Y8	Z8	X9	Y9	Z9	X10	Y10	Z10	X11	Y11	Z11	X12	Y12	Z12	X13	Y13	Z13	X14	Y14	Z14	X15	Y15	Z15	X16	Y16	Z16	X17	Y17	Z17	X18	Y18	Z18	X19	Y19	Z19	X20	Y20	Z20	X21	Y21	Z21	X22	Y22	Z22	X23	Y23	Z23	X24	Y24	Z24	X25	Y25	Z25	X26	Y26	Z26	X27	Y27	Z27	X28	Y28	Z28	X29	Y29	Z29	X30	Y30	Z30	X31	Y31	Z31	X32	Y32	Z32	X33	Y33	Z33	X34	Y34	Z34	X35	Y35	Z35	X36	Y36	Z36	X37	Y37	Z37	X38	Y38	Z38	X39	Y39	Z39	X40	Y40	Z40	X41	Y41	Z41
																																																																																																																												
1	0.01	262.22189	1613.9267	-1915.75424	92.86296	1585.15076	-1890.17502	273.7244	1599.25705	-2040.73151	60.61347	1577.82013	-1984.33365	259.82473	1343.10669	-1951.43097	123.9083	1336.71448	-1952.48611	259.22724	1387.25967	-2075.25467	109.28863	1382.50931	-2067.79785	197.53241	1218.16795	-2133.86154	193.28915	1288.81668	-1901.63437	196.62701	1193.75793	-1848.66974	357.85561	1361.32599	-2006.27289	417.52556	1123.85269	-2028.92914	425.02388	1039.93423	-1997.55402	419.54323	967.67311	-2017.5621	362.05242	813.10219	-1940.31662	430.59078	824.16641	-1935.80048	405.62408	766.63742	-1892.62085	29.17896	1352.41394	-2001.75827	-12.50005	1152.35062	-2074.68475	-41.11701	1028.33755	-2035.87601	-45.8615	933.93951	-2031.2941	13.59904	806.20728	-1956.13922	-60.1332	797.07779	-1958.87878	-46.8728	759.10919	-1926.77444	326.16859	945.50201	-1955.65994	59.51716	953.03329	-1951.15921	266.65461	1021.82785	-2117.85934	107.80252	1036.36108	-2119.55353	320.98824	652.12128	-2099.13361	314.91467	501.08055	-2046.29242	256.7178	305.4862	-2029.25079	281.87906	154.3663	-2099.53094	223.07549	108.66488	-2154.74197	256.89617	78.05653	-1971.72089	47.73067	667.04498	-2077.3819	72.58129	509.31709	-1961.08719	73.79906	333.54923	-1995.58685	53.95446	150.33763	-2081.44119	100.99231	107.81073	-2156.69342	66.52997	83.12074	-1969.55841
2	0.043	263.91483	1612.75299	-1914.93317	94.42513	1584.12674	-1889.46426	275.27386	1599.30756	-2040.03983	60.10801	1578.76801	-1985.06027	260.68977	1342.94739	-1952.6622	124.58553	1337.02026	-1953.06625	259.7843	1386.43341	-2076.35376	109.92465	1382.14905	-2068.55026	197.58774	1217.23206	-2133.81592	194.09531	1289.33548	-1902.12997	197.16957	1194.52324	-1848.74451	358.61523	1360.7373	-2007.86835	418.35701	1123.17451	-2029.13818	426.436	1039.73671	-1997.5824	421.64566	967.83463	-2017.89566	366.08231	817.67113	-1941.035	435.39333	823.65334	-1937.31827	412.17342	765.6311	-1894.47998	29.65595	1352.89841	-2002.36282	-11.46269	1153.1385	-2075.82764	-40.45247	1028.95721	-2037.52319	-44.6137	934.20189	-2032.39288	15.31899	807.21054	-1956.47461	-58.30882	797.51953	-1959.56497	-44.82617	759.61021	-1927.31476	327.13306	945.62813	-1954.84222	60.62792	952.49115	-1948.5144	266.10365	1021.65092	-2116.81091	107.267	1035.95505	-2117.285	320.6773	652.2464	-2098.43536	315.05224	501.15135	-2045.79102	257.0512	305.42477	-2028.82782	281.96625	154.58684	-2099.68674	223.06759	108.74907	-2154.69055	257.05847	78.02219	-1971.75583	47.76645	667.02347	-2077.49893	72.43464	508.14812	-1963.23715	74.00133	333.06816	-1997.10251	54.65959	148.85701	-2080.78445	102.17156	106.51069	-2155.37933	67.08894	79.75764	-1967.32925
3	0.077	265.30251	1611.38947	-1914.19617	95.43368	1583.08456	-1889.19266	276.46149	1599.32877	-2039.45358	61.07344	1579.12582	-1984.96231	261.22736	1342.80304	-1954.01291	125.05219	1337.41882	-1953.23105	259.25837	1385.08347	-2077.98599	109.61303	1381.46744	-2069.01108	196.30016	1215.70816	-2133.21152	194.79591	1290.13275	-1902.6886	197.80725	1195.70778	-1848.21121	358.66013	1359.64035	-2010.16037	418.05386	1121.73599	-2029.78821	426.89888	1039.19815	-1998.52631	422.40086	967.54539	-2018.85162	368.89519	821.07483	-1941.08871	440.90454	823.40118	-1939.73846	418.87787	764.71054	-1896.06537	29.75951	1352.85522	-2002.23862	-11.2207	1153.62007	-2075.79681	-40.40192	1028.99414	-2037.38022	-44.16086	934.14307	-2032.01309	16.89449	808.00865	-1955.73135	-56.71123	797.5724	-1958.62503	-42.64437	759.73389	-1926.42838	327.17274	945.64232	-1953.00919	60.69209	951.48529	-1946.08139	264.97936	1021.43318	-2114.91409	106.10437	1035.41061	-2114.31442	320.07584	652.40997	-2096.85165	314.69017	501.19991	-2044.51431	256.88734	305.34992	-2028.08487	281.91563	154.72627	-2099.552	223.06292	108.95156	-2154.57199	257.09715	77.99666	-1971.69281	47.46437	667.20032	-2078.45459	70.96891	506.81454	-1966.68655	72.80738	332.68646	-2000.05844	54.64194	147.26253	-2081.41525	103.20065	104.69333	-2154.75677	64.70528	77.83262	-1965.88333
4	0.11	266.2295	1610.36209	-1913.55133	96.2673	1582.41379	-1888.79333	277.39008	1599.23569	-2038.8739	61.8027	1579.42657	-1984.7789	261.36999	1342.68433	-1955.17197	125.13067	1337.93594	-1953.00919	258.29718	1384.17252	-2079.54956	108.68929	1381.10886	-2069.00558	194.417	1214.43039	-2132.46948	195.20557	1290.73303	-1902.17926	198.37818	1196.93497	-1847.30194	358.3424	1358.6377	-2012.80426	416.45466	1120.37491	-2032.12234	426.64307	1038.34633	-2000.35706	421.97769	966.84784	-2020.25299	372.27444	819.7773	-1940.35248	444.64516	822.92397	-1941.90094	425.24071	764.22714	-1897.56134	29.25005	1353.25485	-2001.27533	-12.19731	1153.88733	-2074.20822	-41.1001	1029.23805	-2035.74692	-44.44189	934.1423	-2029.8732	17.89313	808.56117	-1953.88748	-55.81623	797.66266	-1955.87921	-40.86212	759.40819	-1924.29749	325.93693	945.94673	-1949.94476	59.47471	951.31172	-1943.23792	264.29413	1021.31332	-2112.14554	105.31237	1035.34142	-2111.64337	319.24932	652.68288	-2094.52667	313.80133	501.33343	-2042.90527	256.34089	305.42332	-2027.40143	281.92621	155.14699	-2098.83743	223.20417	109.20359	-2154.45923	257.15191	77.95747	-1971.68564	46.83921	667.92831	-2079.56909	68.74808	506.09962	-1970.14862	71.87603	332.68791	-2003.35724	54.16962	146.39738	-2082.95563	103.64103	103.35512	-2155.54596	64.32768	77.47481	-1966.21582
5	0.143	266.81311	1609.76578	-1912.74399	96.53001	1582.29553	-1888.20297	277.86358	1599.10767	-2038.07251	62.13262	1579.94186	-1984.20227	261.325	1342.88315	-1955.84503	124.85596	1338.81683	-1952.54868	257.07458	1383.31955	-2080.19073	107.65729	1381.24481	-2068.70804	192.51627	1213.69751	-2131.72714	195.24141	1291.67221	-1902.46338	198.53964	1198.31955	-1846.28647	357.70309	1357.81677	-2014.58725	414.18617	1119.15459	-2034.32556	425.80036	1037.66998	-2002.74185	420.62222	966.15723	-2022.07016	374.88724	819.1938	-1939.58374	446.9976	822.66937	-1943.93066	430.33031	764.17358	-1898.78906	28.60077	1354.09973	-2000.00443	-14.05041	1154.56146	-2071.35437	-41.96049	1029.67262	-2031.67053	-45.43414	934.9221	-2026.08536	18.19221	809.30962	-1951.315	-55.53758	798.2843	-1951.86432	-39.81257	759.85374	-1920.77835	324.02927	946.36101	-1946.24878	57.31027	951.86707	-1940.83435	263.72849	1021.33751	-2108.95157	104.72163	1035.47256	-2109.3602	318.15147	653.09731	-2091.92001	312.52827	501.56467	-2041.33453	255.63869	305.70345	-2026.68701	281.79819	155.73911	-2098.38745	223.18796	109.6611	-2154.30435	257.27821	77.92808	-1971.57928	46.25569	669.2804	-2081.06903	66.18952	505.8527	-1973.21167	70.38215	333.13984	-2006.07239	53.45412	145.87635	-2083.91495	103.51614	102.69718	-2156.07422	63.88291	77.26393	-1966.3797
6	0.177	267.019	1609.42917	-1911.49277	96.61722	1582.21802	-1887.12006	278.01172	1599.27292	-2036.84494	62.23572	1580.44144	-1983.12805	260.84173	1343.27148	-1955.97198	124.43717	1340.04562	-1951.87988	256.11454	1383.28018	-2080.8963	106.67532	1381.83411	-2068.20892	190.64846	1213.42789	-2130.90302	194.89483	1292.82898	-1902.00165	197.95151	1199.55208	-1845.40146	356.94	1357.5972	-2015.62103	411.71284	1118.66592	-2036.4299	424.57954	1037.52693	-2005.24979	418.38005	965.68535	-2023.81439	376.11389	819.27368	-1938.86154	447.77088	822.68684	-1945.99884	433.6351	764.73465	-1899.98138	27.82703	1355.47318	-1998.78494	-16.30177	1155.45944	-2068.02048	-43.14142	1030.74715	-2027.0369	-46.71628	936.15311	-2021.23978	17.84768	810.50552	-1947.61856	-55.89145	799.77768	-1946.94809	-39.69044	761.23444	-1915.94513	322.31903	946.9101	-1942.87796	55.5401	952.37068	-1938.72528	262.74773	1021.48567	-2106.0791	103.654	1035.61951	-2107.30743	316.702	653.71933	-2089.53735	311.37257	502.02301	-2039.91638	255.21988	306.02175	-2025.88669	281.77378	156.29012	-2098.20419	223.42752	110.43689	-2153.94775	257.4658	77.81837	-1971.34857	45.33206	670.60776	-2081.98654	63.51113	505.97469	-1975.88821	68.7276	333.78891	-2008.55667	52.78565	145.81967	-2084.75815	103.32221	102.49217	-2156.48178	63.48073	77.09826	-1966.43509
7	0.21	267.06604	1609.08035	-1909.75845	96.53318	1582.04926	-1885.45746	277.86367	1599.71878	-2035.07111	62.03122	1581.09253	-1981.48758	260.04049	1343.98834	-1955.72556	123.47358	1341.32889	-1951.23779	254.99727	1383.34549	-2080.72708	105.5119	1382.47757	-2067.64969	188.79702	1213.5997	-2129.98291	193.78506	1293.65158	-1900.72983	196.53019	1200.83084	-1844.40918	355.95451	1357.77573	-2015.71869	409.58813	1118.83873	-2037.78732	423.07095	1037.69531	-2007.11288	416.32149	965.73616	-2025.3447	375.69099	820.22163	-1939.11469	447.10102	822.94357	-1947.69775	434.65878	765.58464	-1900.93811	26.86647	1356.95267	-1997.76596	-18.81611	1156.46461	-2064.97284	-44.63988	1032.08313	-2022.87384	-48.16093	937.52289	-2016.37558	16.90483	812.32285	-1942.12128	-57.08097	801.70105	-1941.01868	-40.56581	763.34206	-1909.85947	320.34504	947.70874	-1940.40924	53.30724	952.97592	-1936.39038	261.13333	1021.94283	-2103.92258	102.05916	1036.04164	-2105.22263	315.4237	654.62158	-2087.57172	310.60436	502.84492	-2038.54156	255.04936	306.79358	-2024.99298	282.28107	157.27567	-2097.23923	224.16639	111.49019	-2153.57834	257.77216	77.69742	-1970.95856	44.19419	672.56378	-2084.25415	61.02775	506.12175	-1978.89771	66.92973	334.49623	-2010.95306	52.10042	145.97997	-2085.70099	103.06119	102.34674	-2156.85501	63.11979	76.94702	-1966.49521
8	0.243	266.97157	1608.3902	-1907.19971	96.21033	1581.65588	-1882.97195	277.50822	1600.11765	-2032.62238	61.60438	1581.70929	-1979.04617	258.65091	1344.56772	-1955.27817	122.3595	1342.34909	-1950.44601	253.66755	1383.63724	-2080.17715	104.30958	1383.28018	-2066.96106	186.83121	1214.00658	-2129.12186	192.36427	1294.54651	-1900.01221	195.17155	1201.85753	-1843.51212	354.75262	1358.02795	-2015.38315	407.84355	1119.3222	-2038.33206	421.4785	1038.00003	-2008.04916	414.38908	965.94543	-2026.10718	374.15714	820.13412	-1938.65723	445.38441	823.27354	-1948.60016	433.31501	766.10184	-1901.45737	25.67729	1358.37692	-1996.87958	-21.00743	1157.37419	-2062.41547	-46.37537	1033.14743	-2019.11728	-49.8519	938.70079	-2011.65512	15.44421	814.66415	-1935.5751	-58.61294	803.74504	-1934.45023	-42.05058	765.96519	-1902.92587	319.22491	949.11835	-1937.33719	51.87891	953.27126	-1934.59305	259.17252	1022.69974	-2102.30988	100.14395	1036.5406	-2103.31268	314.328	655.76546	-2086.52481	310.01654	503.87508	-2037.9805	255.22118	307.60046	-2024.67102	282.98964	158.24676	-2097.08557	225.18642	112.63199	-2153.35526	258.19696	77.63284	-1970.6839	43.60031	674.06059	-2085.70221	59.10938	506.3583	-1982.37717	65.89814	335.61775	-2014.27673	51.51369	146.22012	-2086.68427	102.82677	102.12275	-2157.22992	62.87328	76.86152	-1966.55685
9	0.277	266.81738	1606.95236	-1903.50647	95.76938	1580.53284	-1879.42474	276.89545	1600.38101	-2028.99704	60.97725	1582.07397	-1975.5426	256.85482	1345.1683	-1954.89182	120.91221	1343.25012	-1949.92325	252.1595	1384.20349	-2079.72824	102.91912	1384.05029	-2066.27136	184.83591	1214.53995	-2128.44467	190.92234	1295.33707	-1899.2514	193.49697	1202.70546	-1842.69791	353.15975	1358.07739	-2014.8381	406.08307	1119.65897	-2038.31039	419.56295	1038.20786	-2008.28049	412.33494	966.09917	-2026.37039	371.39194	820.476	-1939.0007	442.71553	823.35922	-1948.5733	429.97292	766.18591	-1901.44165	24.35073	1359.52286	-1996.04126	-23.14824	1158.01056	-2060.33249	-48.49777	1034.07822	-2015.93567	-51.78072	939.54643	-2007.02637	13.77406	817.25372	-1928.38898	-60.29419	806.03607	-1927.40768	-43.93717	769.05174	-1895.01724	317.09311	949.7554	-1936.55411	50.12055	953.41774	-1933.05695	257.30675	1023.76343	-2101.12976	98.1832	1037.23488	-2101.77094	313.59606	656.95213	-2086.26602	309.61399	504.97807	-2038.12866	255.32305	308.63949	-2024.8848	283.94165	159.26558	-2096.98792	226.54224	113.60711	-2153.4288	258.56733	77.62935	-1970.56747	42.20107	675.30594	-2087.26166	57.89698	506.58249	-1985.73013	65.06485	336.5403	-2017.32315	51.10943	146.39603	-2087.44217	102.51754	101.91429	-2157.63718	62.75367	76.81919	-1966.63956
